{"title":"Taken 2 2012 720p BluRay x264 - Exclusive","uid":7937978,"size":3207106369,"categoryP":"video","categoryS":"hd___movies","magnet":"?xt=urn:btih:6c6c857f2f03360ef0427654efa5ba6a07afbc88&amp;dn=Taken+2+2012+720p+BluRay+x264+-+Exclusive&amp;tr=udp%3A%2F%2Ftracker.openbittorrent.com%3A80&amp;tr=udp%3A%2F%2Fopen.demonii.com%3A1337&amp;tr=udp%3A%2F%2Ftracker.coppersurfer.tk%3A6969&amp;tr=udp%3A%2F%2Fexodus.desync.com%3A6969","seeders":21,"leechers":2,"uploader":"tykoon123","files":-1,"time":1355913240,"description":"Cover: &lt;a href=&quot;\nhttp://imgr.us/images/q9f1g1skt05y5ndpfckp.jpg&quot; rel=&quot;nofollow&quot; target=&quot;_NEW&quot;&gt;\nhttp://imgr.us/images/q9f1g1skt05y5ndpfckp.jpg&lt;/a&gt;\n\nInfo:\n\nFormat : Matroska\nFormat version : Version 2\nFile size : 2.96 GiB\nDuration : 1h 32mn\nOverall bit rate : 4 570 Kbps\nEncoded date : UTC 2012-12-18 23:24:22\nWriting application : mkvmerge v5.8.0 ('No Sleep / Pillow') built on Sep 2 2012 15:37:04\nWriting library : libebml v1.2.3 + libmatroska v1.3.0\n\nVideo\nID : 1\nFormat : AVC\nFormat/Info : Advanced Video Codec\nFormat profile : &lt;a class=&quot;__cf_email__&quot; href=&quot;/cdn-cgi/l/email-protection&quot; data-cfemail=&quot;c183a0b2a4ada8afa4818df2eff1&quot;&gt;[email&amp;#160;protected]&lt;/a&gt;&lt;script cf-hash='f9e31' type=&quot;text/javascript&quot;&gt;\n/* &lt;![CDATA[ */!function(){try{var t=&quot;currentScript&quot;in document?document.currentScript:function(){for(var t=document.getElementsByTagName(&quot;script&quot;),e=t.length;e--;)if(t[e].getAttribute(&quot;cf-hash&quot;))return t[e]}();if(t&amp;&amp;t.previousSibling){var e,r,n,i,c=t.previousSibling,a=c.getAttribute(&quot;data-cfemail&quot;);if(a){for(e=&quot;&quot;,r=parseInt(a.substr(0,2),16),n=2;a.length-n;n+=2)i=parseInt(a.substr(n,2),16)^r,e+=String.fromCharCode(i);e=document.createTextNode(e),c.parentNode.replaceChild(e,c)}}}catch(u){}}();/* ]]&gt; */&lt;/script&gt;\nFormat settings, CABAC : No\nFormat settings, ReFrames : 3 frames\nMuxing mode : Header stripping\nCodec ID : V_MPEG4/ISO/AVC\nDuration : 1h 32mn\nBit rate : 4 288 Kbps\nWidth : 1 280 pixels\nHeight : 534 pixels\nDisplay aspect ratio : 2.40:1\nFrame rate mode : Constant\nFrame rate : 23.976 fps\nColor space : YUV\nChroma subsampling : 4:2:0\nBit depth : 8 bits\nScan type : Progressive\nBits/(Pixel*Frame) : 0.262\nStream size : 2.77 GiB (94%)\nWriting library : x264 core 102\nDefault : Yes\nForced : No\n\nAudio\nID : 2\nFormat : AC-3\nFormat/Info : Audio Coding 3\nMode extension : CM (complete main)\nFormat settings, Endianness : Big\nMuxing mode : Header stripping\nDuration : 1h 32mn\nBit rate mode : Constant\nBit rate : 192 Kbps\nChannel(s) : 2 channels\nChannel positions : Front: L R\nSampling rate : 48.0 KHz\nBit depth : 16 bits\nCompression mode : Lossy\nStream size : 127 MiB (4%)\nDefault : Yes\nForced : No\n\nScreens: &lt;a href=&quot;\nhttp://imgr.us/images/yafswx9aluovtoawl7u.jpg&quot; rel=&quot;nofollow&quot; target=&quot;_NEW&quot;&gt;\nhttp://imgr.us/images/yafswx9aluovtoawl7u.jpg&lt;/a&gt; &lt;a href=&quot;\nhttp://imgr.us/images/8scwh51i2qa8eyjski7z.png&quot; rel=&quot;nofollow&quot; target=&quot;_NEW&quot;&gt;\nhttp://imgr.us/images/8scwh51i2qa8eyjski7z.png&lt;/a&gt; &lt;a href=&quot;\nhttp://imgr.us/images/pf5pnnwy7jnbh8m36xvf.png&quot; rel=&quot;nofollow&quot; target=&quot;_NEW&quot;&gt;\nhttp://imgr.us/images/pf5pnnwy7jnbh8m36xvf.png&lt;/a&gt; &lt;a href=&quot;\nhttp://imgr.us/images/1wiv2dnomx6knl6u80nn.png&quot; rel=&quot;nofollow&quot; target=&quot;_NEW&quot;&gt;\nhttp://imgr.us/images/1wiv2dnomx6knl6u80nn.png&lt;/a&gt; &lt;a href=&quot;\nhttp://imgr.us/images/v6ohcpuszupez6rsoewf.png&quot; rel=&quot;nofollow&quot; target=&quot;_NEW&quot;&gt;\nhttp://imgr.us/images/v6ohcpuszupez6rsoewf.png&lt;/a&gt; &lt;a href=&quot;\nhttp://imgr.us/images/lcg7i4gp9kfkskoza0ji.jpg&quot; rel=&quot;nofollow&quot; target=&quot;_NEW&quot;&gt;\nhttp://imgr.us/images/lcg7i4gp9kfkskoza0ji.jpg&lt;/a&gt;\n","torrent":{"xt":"urn:btih:6c6c857f2f03360ef0427654efa5ba6a07afbc88","amp;dn":"Taken+2+2012+720p+BluRay+x264+-+Exclusive","amp;tr":["udp%3A%2F%2Ftracker.openbittorrent.com%3A80","udp%3A%2F%2Fopen.demonii.com%3A1337","udp%3A%2F%2Ftracker.coppersurfer.tk%3A6969","udp%3A%2F%2Fexodus.desync.com%3A6969"],"infoHash":"6c6c857f2f03360ef0427654efa5ba6a07afbc88","infoHashBuffer":{"type":"Buffer","data":[108,108,133,127,47,3,54,14,240,66,118,84,239,165,186,106,7,175,188,136]},"announce":[],"urlList":[]}}